<?xml version="1.0" encoding="utf-8"?>
<!-- Generator: Adobe Illustrator 24.0.2, SVG Export Plug-In . SVG Version: 6.00 Build 0)  -->
<svg version="1.1" id="Layer_1" xmlns="http://www.w3.org/2000/svg" xmlns:xlink="http://www.w3.org/1999/xlink" x="0px" y="0px"
	 viewBox="0 0 1900 300" style="enable-background:new 0 0 1900 300;" xml:space="preserve">
<style type="text/css">
	.st0{fill:#110241;}
	.st1{fill:#F8F8F8;}
</style>
<g id="Layer_2_1_">
	<rect class="st0" width="1900" height="300"/>
</g>
<g id="Layer_1_1_">
	<path class="st1" d="M1321.3-3.4l0,41.4c0,0-29.1,36-65.1,0.1l0-41.4L1321.3-3.4z"/>
	<path class="st1" d="M1259.1-3.3l0,41.4c0,0-29.1,36-65.1,0.1l0-41.4L1259.1-3.3z"/>
	<path class="st1" d="M1197.7-3.3l0,41.4c0,0-29.1,36-65.1,0.1l0-41.4L1197.7-3.3z"/>
	<path class="st1" d="M1135.6-3.2l0,41.4c0,0-29.1,36-65.1,0.1l0-41.4L1135.6-3.2z"/>
	<path class="st1" d="M1073.1-3.1l0,41.4c0,0-29.1,36-65.1,0.1l0-41.4L1073.1-3.1z"/>
	<path class="st1" d="M1011-3.1l0,41.4c0,0-29.1,36-65.1,0.1l0-41.4L1011-3.1z"/>
	<path class="st1" d="M1690.8-2.3l0,41.4c0,0-29.1,36-65.1,0.1l0-41.4L1690.8-2.3z"/>
	<path class="st1" d="M1628.7-2.2l0,41.4c0,0-29.1,36-65.1,0.1l0-41.4L1628.7-2.2z"/>
	<path class="st1" d="M1567.2-2.1l0,41.4c0,0-29.1,36-65.1,0.1l0-41.4L1567.2-2.1z"/>
	<path class="st1" d="M1505.1-2.1l0,41.4c0,0-29.1,36-65.1,0.1l0-41.4L1505.1-2.1z"/>
	<path class="st1" d="M1442.6-2l0,41.4c0,0-29.1,36-65.1,0.1l0-41.4L1442.6-2z"/>
	<path class="st1" d="M1380.5-2l0,41.4c0,0-29.1,36-65.1,0.1l0-41.4L1380.5-2z"/>
	<path class="st1" d="M2060.8-2.1l0,41.4c0,0-29.1,36-65.1,0.1l0-41.4L2060.8-2.1z"/>
	<path class="st1" d="M1998.7-2l0,41.4c0,0-29.1,36-65.1,0.1l0-41.4L1998.7-2z"/>
	<path class="st1" d="M1937.2-2l0,41.4c0,0-29.1,36-65.1,0.1l0-41.4L1937.2-2z"/>
	<path class="st1" d="M1875.1-1.9l0,41.4c0,0-29.1,36-65.1,0.1l0-41.4L1875.1-1.9z"/>
	<path class="st1" d="M1812.6-1.9l0,41.4c0,0-29.1,36-65.1,0.1l0-41.4L1812.6-1.9z"/>
	<path class="st1" d="M1750.5-1.8l0,41.4c0,0-29.1,36-65.1,0.1l0-41.4L1750.5-1.8z"/>
	<path class="st1" d="M954.1-3l0,41.4c0,0-29.1,36-65.1,0.1L889-3L954.1-3z"/>
	<path class="st1" d="M892-3l0,41.4c0,0-29.1,36-65.1,0.1l0-41.4L892-3z"/>
	<path class="st1" d="M829.5-2.9l0,41.4c0,0-29.1,36-65.1,0.1l0-41.4L829.5-2.9z"/>
	<path class="st1" d="M767.4-2.8l0,41.4c0,0-29.1,36-65.1,0.1l0-41.4L767.4-2.8z"/>
	<path class="st1" d="M705.9-2.8l0,41.4c0,0-29.1,36-65.1,0.1l0-41.4L705.9-2.8z"/>
	<path class="st1" d="M643.8-2.7l0,41.4c0,0-29.1,36-65.1,0.1l0-41.4L643.8-2.7z"/>
	<path class="st1" d="M581.3-2.7l0,41.4c0,0-29.1,36-65.1,0.1l0-41.4L581.3-2.7z"/>
	<path class="st1" d="M519.2-2.6l0,41.4c0,0-29.1,36-65.1,0.1l0-41.4L519.2-2.6z"/>
	<path class="st1" d="M459.3-2.5l0,41.4c0,0-29.1,36-65.1,0.1l0-41.4L459.3-2.5z"/>
	<path class="st1" d="M397.2-2.5l0,41.4c0,0-29.1,36-65.1,0.1l0-41.4L397.2-2.5z"/>
	<path class="st1" d="M334.7-2.4l0,41.4c0,0-29.1,36-65.1,0.1l0-41.4L334.7-2.4z"/>
	<path class="st1" d="M272.6-2.3l0,41.4c0,0-29.1,36-65.1,0.1l0-41.4L272.6-2.3z"/>
	<path class="st1" d="M211.1-2.3l0,41.4c0,0-29.1,36-65.1,0.1l0-41.4L211.1-2.3z"/>
	<path class="st1" d="M149-2.2l0,41.4c0,0-29.1,36-65.1,0.1l0-41.4L149-2.2z"/>
	<path class="st1" d="M86.5-2.2l0,41.4c0,0-29.1,36-65.1,0.1l0-41.4L86.5-2.2z"/>
	<path class="st1" d="M24.4-2.1l0,41.4c0,0-29.1,36-65.1,0.1l0-41.4L24.4-2.1z"/>
</g>
</svg>
